<svg width="80" height="8" viewBox="0 0 80 8" fill="none" xmlns="http://www.w3.org/2000/svg">
<path fill-rule="evenodd" clip-rule="evenodd" d="M26 4C26 6.20914 24.2091 8 22 8C19.7909 8 18 6.20914 18 4C18 1.79086 19.7909 0 22 0C24.2091 0 26 1.79086 26 4ZM40 8C42.2091 8 44 6.20914 44 4C44 1.79086 42.2091 0 40 0C37.7909 0 36 1.79086 36 4C36 6.20914 37.7909 8 40 8ZM62 4C62 6.20914 60.2091 8 58 8C55.7909 8 54 6.20914 54 4C54 1.79086 55.7909 0 58 0C60.2091 0 62 1.79086 62 4ZM80 4C80 6.20914 78.2091 8 76 8C73.7909 8 72 6.20914 72 4C72 1.79086 73.7909 0 76 0C78.2091 0 80 1.79086 80 4Z" fill="#EDEDED"/>
<path fill-rule="evenodd" clip-rule="evenodd" d="M4 8C6.20914 8 8 6.20914 8 4C8 1.79086 6.20914 0 4 0C1.79086 0 0 1.79086 0 4C0 6.20914 1.79086 8 4 8Z" fill="#0147FF"/>
</svg>
